<?xml version="1.0" standalone="no"?>
<svg xmlns="http://www.w3.org/2000/svg" class="icon" viewBox="0 0 1024 1024">
  <path d="M510,466.745166 L806.210971,169.372583 C818.658933,156.875806 838.841067,156.875806 851.289029,169.372583 C863.73699,181.86936 863.73699,202.13064 851.289029,214.627417 L555.078057,512 L851.289029,809.372583 C863.73699,821.86936 863.73699,842.13064 851.289029,854.627417 C838.841067,867.124194 818.658933,867.124194 806.210971,854.627417 L510,557.254834 L213.789029,854.627417 C201.341067,867.124194 181.158933,867.124194 168.710971,854.627417 C156.26301,842.13064 156.26301,821.86936 168.710971,809.372583 L464.921943,512 L168.710971,214.627417 C156.26301,202.13064 156.26301,181.86936 168.710971,169.372583 C181.158933,156.875806 201.341067,156.875806 213.789029,169.372583 L510,466.745166 Z" />
</svg>
