<?xml version="1.0" standalone="no"?>
<svg xmlns="http://www.w3.org/2000/svg" class="icon" viewBox="0 0 1024 1024">
    <path d="M228,778 L68.1204013,778 C51.485363,778 38,764.522168 38,747.896419 L38,277.103581 C38,260.477832 51.485363,247 68.1204013,247 L228,247 L228,100.134799 C228,83.4918092 241.496489,70 258.145251,70 L765.854749,70 C782.503511,70 796,83.4918092 796,100.134799 L796,247 L955.879599,247 C972.514637,247 986,260.477832 986,277.103581 L986,747.896419 C986,764.522168 972.514637,778 955.879599,778 L796,778 L796,923.896419 C796,940.522168 782.503511,954 765.854749,954 L258.145251,954 C241.496489,954 228,940.522168 228,923.896419 L228,778 Z M228,717.792839 L228,453.103581 C228,436.477832 241.496489,423 258.145251,423 L765.854749,423 C782.503511,423 796,436.477832 796,453.103581 L796,717.792839 L925.759197,717.792839 L925.759197,307.207161 L98.2408027,307.207161 L98.2408027,717.792839 L228,717.792839 Z M288.290503,246.730402 L735.709497,246.730402 L735.709497,130.269598 L288.290503,130.269598 L288.290503,246.730402 Z M288.290503,483.207161 L288.290503,893.792839 L735.709497,893.792839 L735.709497,483.207161 L288.290503,483.207161 Z M385.131313,600.85 C368.490248,600.85 355,587.452121 355,570.925 C355,554.397879 368.490248,541 385.131313,541 L638.868687,541 C655.509752,541 669,554.397879 669,570.925 C669,587.452121 655.509752,600.85 638.868687,600.85 L385.131313,600.85 Z M385.131313,718.85 C368.490248,718.85 355,705.452121 355,688.925 C355,672.397879 368.490248,659 385.131313,659 L638.868687,659 C655.509752,659 669,672.397879 669,688.925 C669,705.452121 655.509752,718.85 638.868687,718.85 L385.131313,718.85 Z M385.131313,835.85 C368.490248,835.85 355,822.452121 355,805.925 C355,789.397879 368.490248,776 385.131313,776 L638.868687,776 C655.509752,776 669,789.397879 669,805.925 C669,822.452121 655.509752,835.85 638.868687,835.85 L385.131313,835.85 Z" />
</svg>