<?xml version="1.0" standalone="no"?>
<svg xmlns="http://www.w3.org/2000/svg" class="icon" viewBox="0 0 1024 1024">
    <path d="M827.206876,777.5 L600.793124,777.5 L529.315659,940.829348 C522.230206,957.019939 503.361244,964.401112 487.170652,957.315659 C470.980061,950.230206 463.598888,931.361244 470.684341,915.170652 L684.684341,426.170652 C695.870489,400.609783 732.129511,400.609783 743.315659,426.170652 L957.315659,915.170652 C964.401112,931.361244 957.019939,950.230206 940.829348,957.315659 C924.638756,964.401112 905.769794,957.019939 898.684341,940.829348 L827.206876,777.5 Z M799.198696,713.5 L714,518.816997 L628.801304,713.5 L799.198696,713.5 Z M498.045006,226.5 C489.095754,297.277473 466.465322,358.235977 431.780976,409.700481 C420.453401,426.508294 407.959424,442.137343 394.400898,456.629775 C427.909542,481.60206 466.361778,500.667707 508.412577,512.1256 C525.464037,516.771738 535.520537,534.361117 530.8744,551.412577 C526.228262,568.464037 508.638883,578.520537 491.587423,573.8744 C437.383405,559.105029 388.217423,533.696386 346.129799,500.231637 C332.25233,510.83795 317.636843,520.599763 302.352759,529.545804 C259.12768,554.846198 213.061794,572.258006 167.019296,583.296634 C150.886542,587.16444 135.862056,589.967773 122.296922,591.880656 C117.472214,592.561011 113.148267,593.082423 109.3691,593.466089 C107.999549,593.605127 106.783126,593.717594 105.725346,593.806115 C105.024497,593.864765 104.493564,593.904687 104.138069,593.928493 C86.504449,595.109316 71.2523298,581.771688 70.071507,564.138069 C68.8906843,546.504449 82.2283115,531.25233 99.8619313,530.071507 C100.221699,530.047415 101.251312,529.961252 102.904971,529.793371 C105.870971,529.492259 109.371417,529.07015 113.360394,528.507646 C124.977216,526.869503 138.012624,524.437301 152.098217,521.060299 C192.393853,511.399473 232.666102,496.177522 270.023281,474.311713 C279.912933,468.523127 289.450694,462.350281 298.614348,455.781984 C241.827301,393.403954 204.687301,313.602562 195.189398,226.5 L103,226.5 C85.326888,226.5 71,212.173112 71,194.5 C71,176.826888 85.326888,162.5 103,162.5 L315.5,162.5 L315.5,73 C315.5,55.326888 329.826888,41 347.5,41 C365.173112,41 379.5,55.326888 379.5,73 L379.5,162.5 L592,162.5 C609.673112,162.5 624,176.826888 624,194.5 C624,212.173112 609.673112,226.5 592,226.5 L498.045006,226.5 Z M433.464193,226.5 L353.16562,226.5 C351.32671,226.828541 349.433378,227 347.5,227 C345.566622,227 343.67329,226.828541 341.83438,226.5 L259.642025,226.5 C268.876396,297.65302 300.038865,362.695748 346.883441,413.728634 C358.472807,401.432119 369.106959,388.179737 378.708759,373.932622 C406.452186,332.767027 425.14424,283.939885 433.464193,226.5 Z" />
</svg>