<?xml version="1.0" standalone="no"?>
<svg xmlns="http://www.w3.org/2000/svg" class="icon" viewBox="0 0 1024 1024">
  <path d="M513,240.349523 C566.9,240.349523 617.6,260.821246 655.8,297.9628 C693.9,335.201838 714.9,384.528941 714.9,437.170514 C714.9,489.812086 693.9,539.236674 655.8,576.378228 C617.6,613.519782 567,633.991504 513,633.991504 C459,633.991504 408.3,613.519782 370.2,576.378228 C332.1,539.13919 311.1,489.812086 311.1,437.170514 C311.1,384.528941 332.1,335.104354 370.2,297.9628 C408.4,260.821246 459.1,240.349523 513,240.349523 Z M650.9,437.170514 C650.9,401.911959 636.958258,369.069424 611.12523,343.790467 C584.903223,318.325126 550.242276,304.349523 513,304.349523 C475.729261,304.349523 441.043798,318.346497 414.874742,343.790383 C389.079694,368.93653 375.1,401.858151 375.1,437.170514 C375.1,472.456346 389.063323,505.322419 414.874742,530.550644 C440.987414,556.006424 475.643405,569.991504 513,569.991504 C550.32977,569.991504 584.927011,556.022913 611.125258,530.550644 C636.920306,505.404498 650.9,472.482877 650.9,437.170514 Z M871.6,281.195484 C892.8,322.723836 903.6,366.591813 903.6,411.727087 C903.6,474.312068 887.8,538.846736 856.6,603.283921 C830.8,656.607884 794.2,710.419269 748,763.25581 C665.3,857.815672 572,925.469841 535.8,950.133393 C529,954.715159 521.1,957.152269 513,957.152269 C504.8,957.152269 496.9,954.715159 490.2,950.133393 C454,925.469841 360.8,857.815672 278,763.25581 C231.7,710.419269 195.2,656.607884 169.4,603.283921 C138.2,538.846736 122.4,474.409552 122.4,411.727087 C122.4,366.689297 133.2,322.723836 154.4,281.195484 C174.6,241.61682 203.5,205.840048 240.1,175.03498 C276.4,144.522364 318.2,120.541204 364.5,103.676403 C412.2,86.3241814 462.1,77.5505859 512.9,77.5505859 L513.1,77.5505859 C563.9,77.5505859 613.8,86.3241814 661.5,103.676403 C707.8,120.541204 749.6,144.522364 785.9,175.03498 C822.5,205.840048 851.3,241.519336 871.6,281.195484 Z M839.6,411.727087 C839.6,376.891234 831.281051,342.984325 814.611186,310.320665 C798.265399,278.382045 774.868944,249.402329 744.719396,224.026386 C714.195516,198.368991 678.92851,178.138263 639.620908,163.820442 C598.960766,149.029167 556.467141,141.550586 513.1,141.550586 L512.9,141.550586 C469.532859,141.550586 427.039234,149.029167 386.404173,163.811312 C347.07149,178.138263 311.804484,198.368991 281.312175,223.999831 C251.105457,249.423875 227.629136,278.500359 211.402054,310.294726 C194.741833,342.930174 186.4,376.940113 186.4,411.727087 C186.4,464.413454 199.88681,519.390248 227.011004,575.4097 C250.22409,623.386976 283.527556,672.454681 326.149734,721.09418 C361.121688,761.033106 400.638754,798.811826 442.549818,833.74207 C467.614188,854.631651 491.529354,872.863391 513.001563,888.05173 C534.530887,872.829271 558.429664,854.619519 583.495598,833.735473 C625.421573,798.80424 664.913743,761.04087 699.820646,721.128031 C742.523587,672.290894 775.867913,623.196821 798.997071,575.393016 C826.094353,519.429152 839.6,464.354607 839.6,411.727087 Z" />
</svg>
