<?xml version="1.0" standalone="no"?>
<svg xmlns="http://www.w3.org/2000/svg" class="icon" viewBox="0 0 1024 1024">
    <path d="M615.73011,544.465217 L831.140772,781.597177 C843.024044,794.678719 842.052654,814.916699 828.971113,826.799971 C815.889571,838.683243 795.651591,837.711853 783.768319,824.630312 L575.668131,595.545989 L575.454518,761.874141 C575.431822,779.547239 561.086546,793.855715 543.413449,793.833072 C525.740351,793.810321 511.431875,779.465045 511.454518,761.791948 L511.768965,516.990088 C510.33955,506.853202 513.789207,496.208974 521.937978,488.806631 C528.680082,482.682104 537.323131,479.972129 545.743622,480.57478 L769.404414,480.22431 C787.077504,480.196703 801.426819,494.501129 801.454585,512.174219 C801.482193,529.847309 787.177767,544.196625 769.504677,544.22431 L615.73011,544.465217 Z M888.454545,323.818182 L888.454545,233.090909 C888.454545,205.577087 866.150186,183.272727 838.636364,183.272727 L767.454545,183.272727 L767.454545,192.181818 C767.454545,209.85493 753.127657,224.181818 735.454545,224.181818 C717.781433,224.181818 703.454545,209.85493 703.454545,192.181818 L703.454545,183.272727 L321.454545,183.272727 L321.454545,192.181818 C321.454545,209.85493 307.127657,224.181818 289.454545,224.181818 C271.781433,224.181818 257.454545,209.85493 257.454545,192.181818 L257.454545,183.272727 L186.272727,183.272727 C158.758905,183.272727 136.454545,205.577087 136.454545,233.090909 L136.454545,323.818182 L888.454545,323.818182 Z M888.454545,387.818182 L136.454545,387.818182 L136.454545,846.727273 C136.454545,874.241095 158.758905,896.545455 186.272727,896.545455 L838.636364,896.545455 C866.150186,896.545455 888.454545,874.241095 888.454545,846.727273 L888.454545,387.818182 Z M767.454545,119.272727 L838.636364,119.272727 C901.49641,119.272727 952.454545,170.230863 952.454545,233.090909 L952.454545,846.727273 C952.454545,909.587319 901.49641,960.545455 838.636364,960.545455 L186.272727,960.545455 C123.412681,960.545455 72.4545455,909.587319 72.4545455,846.727273 L72.4545455,233.090909 C72.4545455,170.230863 123.412681,119.272727 186.272727,119.272727 L257.454545,119.272727 L257.454545,69.4545455 C257.454545,51.7814335 271.781433,37.4545455 289.454545,37.4545455 C307.127657,37.4545455 321.454545,51.7814335 321.454545,69.4545455 L321.454545,119.272727 L703.454545,119.272727 L703.454545,69.4545455 C703.454545,51.7814335 717.781433,37.4545455 735.454545,37.4545455 C753.127657,37.4545455 767.454545,51.7814335 767.454545,69.4545455 L767.454545,119.272727 Z" />
</svg>