<?xml version="1.0" standalone="no"?>
<svg xmlns="http://www.w3.org/2000/svg" class="icon" viewBox="0 0 1024 1024">
    <path d="M860.839939,432.922981 C849.930328,360.46417 790.65695,305.089382 719.172331,305.089382 L703.505859,305.089382 L703.505859,432.922981 L860.839939,432.922981 L860.839939,432.922981 Z M862.411237,491.134161 L703.505859,491.134161 L703.505859,634.490742 L719.172331,634.490742 C795.682775,634.490742 858.204561,571.055836 862.411237,491.134161 L862.411237,491.134161 Z M648.231445,305.089382 L303.827669,305.089382 C224.594436,305.089382 160.363209,373.119562 160.363209,457.039042 L160.363209,482.541083 C160.363209,566.460562 224.594436,634.490742 303.827669,634.490742 L648.231445,634.490742 L648.231445,305.089382 Z M213.6,105 L809.4,105 C919.083751,105 1008,199.195634 1008,315.391837 L1008,675.608163 C1008,791.804366 919.083751,886 809.4,886 L213.6,886 C103.916249,886 15,791.804366 15,675.608163 L15,315.391837 C15,199.195634 103.916249,105 213.6,105 Z M213.6,163.442177 C134.383957,163.442177 70.1666667,231.472357 70.1666667,315.391837 L70.1666667,675.608163 C70.1666667,759.527643 134.383957,827.557823 213.6,827.557823 L809.4,827.557823 C888.616043,827.557823 952.833333,759.527643 952.833333,675.608163 L952.833333,315.391837 C952.833333,231.472357 888.616043,163.442177 809.4,163.442177 L213.6,163.442177 Z M303.827669,246.647205 L719.172331,246.647205 C828.879885,246.647205 917.81543,340.842839 917.81543,457.039042 L917.81543,482.541083 C917.81543,598.737285 828.879885,692.932919 719.172331,692.932919 L303.827669,692.932919 C194.120115,692.932919 105.18457,598.737285 105.18457,482.541083 L105.18457,457.039042 C105.18457,340.842839 194.120115,246.647205 303.827669,246.647205 Z" />
</svg>