<?xml version="1.0" standalone="no"?>
<svg xmlns="http://www.w3.org/2000/svg" class="icon" viewBox="0 0 1024 1024">
  <path d="M780.8,160 C879.769427,160 960,245.02611 960,349.911133 L960,675.062013 C960,779.947035 879.769427,864.973146 780.8,864.973146 L243.2,864.973146 C144.230573,864.973146 64,779.947035 64,675.062013 L64,349.911133 C64,245.02611 144.230573,160 243.2,160 L780.8,160 Z M780.8,212.753093 L243.2,212.753093 C171.72208,212.753093 113.777778,274.160839 113.777778,349.911133 L113.777778,675.062013 C113.777778,750.812307 171.72208,812.220053 243.2,812.220053 L780.8,812.220053 C852.27792,812.220053 910.222222,750.812307 910.222222,675.062013 L910.222222,349.911133 C910.222222,274.160839 852.27792,212.753093 780.8,212.753093 Z M699.386111,287.858484 C798.377016,287.858484 878.625,372.884594 878.625,477.769617 L878.625,500.789148 C878.625,605.674171 798.377016,690.700281 699.386111,690.700281 L324.613889,690.700281 C225.622984,690.700281 145.375,605.674171 145.375,500.789148 L145.375,477.769617 C145.375,372.884594 225.622984,287.858484 324.613889,287.858484 L699.386111,287.858484 Z M635.448,340.611 L324.613889,340.611576 C253.120458,340.611576 195.16358,402.019323 195.16358,477.769617 L195.16358,500.789148 C195.16358,576.539442 253.120458,637.947189 324.613889,637.947189 L635.448,637.947 L635.448,340.611 Z M828.645641,508.299617 L685.226,508.298 L685.226,637.947 L699.386111,637.947189 C768.501213,637.947189 824.965406,580.557114 828.645641,508.299617 Z M699.386111,340.611576 L685.226,340.611 L685.226,455.534 L827.144129,455.534837 C817.116759,390.358449 763.734467,340.611576 699.386111,340.611576 Z"/>
</svg>
