<?xml version="1.0" standalone="no"?>
<svg xmlns="http://www.w3.org/2000/svg" class="icon" viewBox="0 0 1024 1024">
  <path d="M568.253343,84.7156353 C586.247605,99.2199594 623.391223,111.28307 646.481718,110.12535 C690.54051,107.924807 734.168767,139.551143 745.712689,182.115627 C751.726881,204.455177 774.625958,235.947047 794.117496,248.629679 C830.98039,272.754953 847.636985,323.956071 831.936408,365.156784 C823.657566,386.7206 823.657566,425.650226 831.962287,447.326181 C847.641984,488.472354 830.97084,539.692963 794.091799,563.744111 C779.892437,573.015706 763.851442,592.305274 753.878246,610.734197 L845.671084,851.08056 C854.352486,873.811697 833.169854,896.566 810.874388,888.459038 L722.536267,856.337987 L676.357674,945.003856 C665.337829,966.162669 635.502526,964.602309 626.603206,942.401742 L545.817468,740.868319 C528.100516,748.148906 508.137976,750.166495 489.17919,746.917411 L410.81739,942.401742 C401.91807,964.602309 372.082768,966.162669 361.062922,945.003856 L314.884329,856.337987 L226.546208,888.459038 C204.252939,896.565201 183.07109,873.815821 191.747697,851.085315 L271.417907,642.369592 C270.734374,639.853269 270.01425,637.198498 268.591465,631.953337 C263.453985,612.989443 263.453985,612.989443 259.690664,599.085529 C258.848283,595.975115 239.57818,576.711114 219.804235,563.769743 C182.851308,539.725676 166.203967,488.500589 181.894424,447.326181 C190.147009,425.670005 190.147009,386.700761 181.894424,365.089126 C166.208964,323.927832 182.84181,272.722135 219.778548,248.603983 C239.171792,235.956422 262.089715,204.438634 268.158145,182.06336 C279.684974,139.562093 323.305627,107.922959 367.316616,110.12535 C390.495822,111.283049 427.588681,99.2364232 445.603368,84.7156353 C479.954952,57.0947882 533.817042,57.0947882 568.253343,84.7156353 Z M311.662649,692.275089 L265.223251,813.937071 L318.834684,794.443159 C331.643031,789.785854 345.823849,795.462251 352.261845,807.823617 L382.096407,865.107896 L439.04814,723.036194 C419.638226,710.700788 387.959967,701.258913 367.319417,702.289817 C347.542876,703.279471 327.905828,699.731511 311.662649,692.275089 Z M646.476104,702.289676 C631.937068,701.560712 611.821526,706.075781 594.411758,713.153027 L655.324189,865.107896 L685.158751,807.823617 C691.596747,795.462251 705.777565,789.785854 718.585912,794.443159 L772.183828,813.932156 L718.853086,674.28552 C699.533287,692.592395 673.082615,703.618555 646.476104,702.289676 Z M481.956305,128.870209 C452.43086,152.489867 400.657246,169.18087 362.717451,167.29961 C345.925026,166.465347 326.752739,180.271184 322.353555,196.374695 C312.426211,232.714408 280.443873,276.380774 248.697632,296.935178 C234.582064,306.085582 227.267739,328.440978 233.257702,344.046302 C246.769208,379.174622 246.769208,433.16549 233.264909,468.347464 C227.269588,483.966726 234.579972,506.299074 248.723631,515.435642 C280.090686,535.816054 308.035703,563.550737 313.791887,584.651619 C317.602437,598.628479 317.602437,598.628479 322.728222,617.412937 L322.793122,617.65058 C325.701817,628.29627 325.701817,628.29627 328.376248,638.055018 C328.651856,639.062893 344.29389,646.028211 362.720285,645.112771 C400.663192,643.231358 452.447089,659.927888 481.942408,683.531226 C495.056744,693.99992 518.76247,693.99992 531.881447,683.553425 C561.385349,659.943245 613.224693,643.228838 651.072279,645.112771 C667.896427,645.947003 687.09119,632.110948 691.487627,616.017598 C701.351152,579.716506 733.338722,536.042995 765.167794,515.409831 C779.240168,506.298537 786.570946,483.937821 780.605634,468.396606 C767.017041,433.185357 767.017041,379.154695 780.586721,344.065058 C786.572789,328.469899 779.238085,306.086183 765.193784,296.960924 C733.349271,276.390177 701.347858,232.697767 691.498074,196.374695 C687.097408,180.265759 667.920161,166.464343 651.077959,167.299469 C613.224693,169.183684 561.385349,152.469277 531.936939,128.903395 C518.767122,118.416306 495.073485,118.412603 481.956305,128.870209 Z"/>
</svg>
