<?xml version="1.0" standalone="no"?>
<svg xmlns="http://www.w3.org/2000/svg" class="icon" viewBox="0 0 1024 1024">
    <g transform="translate(135.312500, -0.062500)">
        <path d="M155.001356,714.585607 L102.176744,852.948522 L163.158425,830.778548 C177.727604,825.481903 193.857934,831.937538 201.180995,845.995832 L235.117072,911.143913 L299.897473,749.568563 C277.819106,735.540038 241.786447,724.802282 218.308611,725.974691 C195.813667,727.100183 173.477387,723.065327 155.001356,714.585607 Z M356.921145,776.728627 L267.78648,999.04841 C257.663724,1024.2966 223.726804,1026.07116 211.192002,1002.00773 L158.664994,901.170099 L58.182563,937.700624 C32.8245204,946.919576 8.73069017,921.047234 18.600116,895.196357 L109.223014,657.828816 C108.445511,654.967059 107.626388,651.947849 106.008004,645.982646 C100.164248,624.415449 100.164248,624.415449 95.8835629,608.60285 C94.9253752,605.065449 73.006109,583.156947 50.5137349,568.439027 C8.4806932,541.094268 -10.4552456,482.837165 7.39226176,436.010467 C16.7793736,411.3814 16.7793736,367.062585 7.39226176,342.484173 C-10.4495612,295.672389 8.46988958,237.437339 50.4845165,210.008324 C72.5438529,195.624547 98.6124243,159.780099 105.515113,134.333219 C118.626597,85.9975142 168.244012,50.0150616 218.305424,52.5197894 C244.671199,53.836414 286.86341,40.1360661 307.354671,23.6219111 C346.428749,-7.79063704 407.695546,-7.79063704 446.865988,23.6219111 C467.334017,40.1173422 509.583965,53.8364384 535.848832,52.5197894 C585.96462,50.0171632 635.590685,85.9850609 648.721611,134.392661 C655.562605,159.798912 681.60974,195.613885 703.780882,210.037548 C745.711514,237.474662 764.65798,295.704505 746.798961,342.561119 C737.381982,367.085147 737.381982,411.358907 746.828398,436.010467 C764.663666,482.805054 745.700652,541.057064 703.751654,568.409877 C687.600398,578.954136 669.354374,600.891367 658.010084,621.849956 L762.421816,895.190949 C772.296696,921.042543 748.201975,946.920484 722.841434,937.700624 L622.359003,901.170099 L569.831995,1002.00773 C557.297192,1026.07116 523.360273,1024.2966 513.237517,999.04841 L421.344807,769.849507 C401.192458,778.129232 378.485949,780.423665 356.921145,776.728627 Z M476.620345,738.329247 L545.906925,911.143913 L579.843002,845.995832 C587.166063,831.937538 603.296393,825.481903 617.865572,830.778548 L678.831878,852.942932 L618.167262,694.128152 C596.19166,714.946881 566.10568,727.485783 535.842446,725.974531 C519.304599,725.145494 496.423571,730.280414 476.620345,738.329247 Z M213.073988,117.542749 C193.97302,116.593961 172.165017,132.295018 167.161054,150.609167 C155.868945,191.937479 119.489826,241.598224 83.3792604,264.97427 C67.3231512,275.380813 59.0032871,300.805086 65.8167213,318.552658 C81.1857264,358.503281 81.1857264,419.905841 65.8249191,459.917484 C59.0053905,477.680909 67.3207711,503.078969 83.4088335,513.469776 C119.088084,536.647946 150.874851,568.189957 157.422368,592.1875 C161.756775,608.083058 161.756775,608.083058 167.587228,629.446186 L167.66105,629.716452 C170.969619,641.823548 170.969619,641.823548 174.011718,652.921945 C174.325215,654.068179 192.117643,661.989673 213.077212,660.948564 C256.236332,658.808877 315.139235,677.797453 348.689432,704.640982 C363.606665,716.546784 390.571342,716.546784 405.493855,704.666228 C439.053815,677.814919 498.019788,658.806011 541.070482,660.948564 C560.207535,661.897317 582.041104,646.161893 587.041942,627.8593 C598.261458,586.57491 634.646529,536.90604 670.851312,513.440422 C686.85829,503.078358 695.196868,477.648035 688.411474,459.973372 C672.954785,419.928436 672.954785,358.480618 688.38996,318.573989 C695.198965,300.837977 686.85592,275.381496 670.880875,265.003551 C634.658528,241.608918 598.257711,191.918554 587.053826,150.609167 C582.048177,132.288849 560.234531,116.592818 541.076943,117.542588 C498.019788,119.685462 439.053815,100.676555 405.556976,73.875624 C390.576634,61.9489021 363.625707,61.9446905 348.705239,73.8378832 C315.120775,100.699971 256.229568,119.682261 213.073988,117.542749 Z" />
    </g>
</svg>