<?xml version="1.0" standalone="no"?>
<svg xmlns="http://www.w3.org/2000/svg" class="icon" viewBox="0 0 1024 1024">
    <path d="M400.46441,350.099461 L566.392344,474.556477 L678.373897,437.225974 C695.978236,431.357339 715.006841,440.871007 720.875475,458.475346 C726.74411,476.079685 717.230442,495.10829 699.626103,500.976925 L570.941893,543.875475 C560.481336,547.362638 548.975555,545.495412 540.154642,538.87914 L383.683608,421.51543 L351.170134,559.886728 L538.16923,700.236414 C546.624479,706.582389 551.6,716.537704 551.6,727.109489 L551.6,942 C551.6,960.556768 536.556768,975.6 518,975.6 C499.443232,975.6 484.4,960.556768 484.4,942 L484.4,743.902278 L334.387122,631.312106 L249.709159,991.685759 C245.464432,1009.75053 227.379011,1020.95389 209.314241,1016.70916 C191.249471,1012.46443 180.046113,994.379011 184.290841,976.314241 L324.57709,379.282064 L165.059827,450.148587 L126.873655,564.631562 C121.002005,582.234896 101.971771,591.745305 84.3684378,585.873655 C66.7651042,580.002005 57.2546953,560.971771 63.126345,543.368438 L106.00162,414.827429 C108.988864,405.871607 115.606056,398.585728 124.233851,394.752777 L341.358576,298.293786 C342.179254,297.929195 343.006715,297.60014 343.839235,297.305958 L349.171926,274.611017 C301.963604,251.792238 269.4,203.448938 269.4,147.5 C269.4,69.5726218 332.572622,6.4 410.5,6.4 C488.427378,6.4 551.6,69.5726218 551.6,147.5 C551.6,223.94488 490.808119,286.191056 414.931141,288.531744 L400.46441,350.099461 Z M401.679655,220.879072 C404.571829,221.223051 407.51525,221.4 410.5,221.4 C451.313843,221.4 484.4,188.313843 484.4,147.5 C484.4,106.686157 451.313843,73.6 410.5,73.6 C369.686157,73.6 336.6,106.686157 336.6,147.5 C336.6,181.04889 358.955669,209.376335 389.582713,218.398039 C391.929677,218.441035 394.307897,218.732108 396.685759,219.290841 C398.415837,219.697362 400.082982,220.23083 401.679651,220.879071 Z M871.1105,730.1 L628.671875,730.1 C610.115107,730.1 595.071875,715.056768 595.071875,696.5 C595.071875,677.943232 610.115107,662.9 628.671875,662.9 L869.118597,662.9 L804.193069,597.710547 C791.098095,584.562342 791.141248,563.288042 804.289453,550.193069 C817.437658,537.098095 838.711958,537.141248 851.806931,550.289453 L967.982537,666.937318 C978.474686,672.621686 985.6,683.72874 985.6,696.5 C985.6,706.03208 981.630719,714.637084 975.254851,720.752319 C975.107292,720.906128 974.957985,721.058879 974.806931,721.210547 L851.806931,844.710547 C838.711958,857.858752 817.437658,857.901905 804.289453,844.806931 C791.141248,831.711958 791.098095,810.437658 804.193069,797.289453 L871.1105,730.1 Z" />
</svg>