<?xml version="1.0" standalone="no"?>
<svg xmlns="http://www.w3.org/2000/svg" class="icon" viewBox="0 0 1024 1024">
  <path d="M512,960 C264.576432,960 64,759.423568 64,512 C64,264.576432 264.576432,64 512,64 C759.423568,64 960,264.576432 960,512 C960,759.423568 759.423568,960 512,960 Z M512,896 C724.077344,896 896,724.077344 896,512 C896,299.922656 724.077344,128 512,128 C299.922656,128 128,299.922656 128,512 C128,724.077344 299.922656,896 512,896 Z M528,192 L528,558.87412 L705.750406,677.374391 C720.455324,687.177669 724.428888,707.045488 714.625609,721.750406 C704.822331,736.455324 684.954512,740.428888 670.249594,730.625609 L478.249594,602.625609 C469.347236,596.690704 464,586.699302 464,576 L464,192 C464,174.326888 478.326888,160 496,160 C513.673112,160 528,174.326888 528,192 Z" />
</svg>
