<?xml version="1.0" standalone="no"?>
<svg xmlns="http://www.w3.org/2000/svg" class="icon" viewBox="0 0 1024 1024">
    <path d="M185.5,265.5 L127.5,265.5 C109.826888,265.5 95.5,251.173112 95.5,233.5 C95.5,215.826888 109.826888,201.5 127.5,201.5 L344.5,201.5 L344.5,97 C344.5,79.326888 358.826888,65 376.5,65 L660.5,65 C678.173112,65 692.5,79.326888 692.5,97 L692.5,201.5 L907.5,201.5 C925.173112,201.5 939.5,215.826888 939.5,233.5 C939.5,251.173112 925.173112,265.5 907.5,265.5 L851.5,265.5 L851.5,884 C851.5,915.081733 825.224823,939 794.233577,939 L242.766423,939 C211.775177,939 185.5,915.081733 185.5,884 L185.5,265.5 Z M249.5,265.5 L249.5,875 L787.5,875 L787.5,265.5 L249.5,265.5 Z M408.5,201.5 L628.5,201.5 L628.5,129 L408.5,129 L408.5,201.5 Z M486.5,440 C486.5,422.326888 500.826888,408 518.5,408 C536.173112,408 550.5,422.326888 550.5,440 L550.5,708 C550.5,725.673112 536.173112,740 518.5,740 C500.826888,740 486.5,725.673112 486.5,708 L486.5,440 Z M344.5,440 C344.5,422.326888 358.826888,408 376.5,408 C394.173112,408 408.5,422.326888 408.5,440 L408.5,708 C408.5,725.673112 394.173112,740 376.5,740 C358.826888,740 344.5,725.673112 344.5,708 L344.5,440 Z M627.5,440 C627.5,422.326888 641.826888,408 659.5,408 C677.173112,408 691.5,422.326888 691.5,440 L691.5,708 C691.5,725.673112 677.173112,740 659.5,740 C641.826888,740 627.5,725.673112 627.5,708 L627.5,440 Z" />
</svg>