<?xml version="1.0" standalone="no"?>
<svg xmlns="http://www.w3.org/2000/svg" class="icon" viewBox="0 0 1024 1024">
    <path d="M596.483523,965 C594.705679,965.328377 592.872882,965.5 591,965.5 L434,965.5 C432.127118,965.5 430.294321,965.328377 428.516477,965 L79,965 C62.4314575,965 49,951.568542 49,935 L49,503 C49,486.431458 62.4314575,473 79,473 L433,473 C449.568542,473 463,486.431458 463,503 L463,905.5 L561,905.5 L561,385 C561,368.431458 574.431458,355 591,355 L945,355 C961.568542,355 975,368.431458 975,385 L975,935 C975,951.568542 961.568542,965 945,965 L596.483523,965 Z M306,100 L306,385 C306,401.568542 292.568542,415 276,415 C259.431458,415 246,401.568542 246,385 L246,70 C246,53.4314575 259.431458,40 276,40 L748,40 C764.568542,40 778,53.4314575 778,70 L778,266.875 C778,283.443542 764.568542,296.875 748,296.875 C731.431458,296.875 718,283.443542 718,266.875 L718,100 L306,100 Z M109,533 L109,905 L403,905 L403,533 L109,533 Z M621,415 L621,905 L915,905 L915,415 L621,415 Z M748,572.5 C731.431458,572.5 718,559.068542 718,542.5 C718,525.931458 731.431458,512.5 748,512.5 L787,512.5 C803.568542,512.5 817,525.931458 817,542.5 C817,559.068542 803.568542,572.5 787,572.5 L748,572.5 Z M748,690.5 C731.431458,690.5 718,677.068542 718,660.5 C718,643.931458 731.431458,630.5 748,630.5 L787,630.5 C803.568542,630.5 817,643.931458 817,660.5 C817,677.068542 803.568542,690.5 787,690.5 L748,690.5 Z M748,808.5 C731.431458,808.5 718,795.068542 718,778.5 C718,761.931458 731.431458,748.5 748,748.5 L787,748.5 C803.568542,748.5 817,761.931458 817,778.5 C817,795.068542 803.568542,808.5 787,808.5 L748,808.5 Z M237,808.5 C220.431458,808.5 207,795.068542 207,778.5 C207,761.931458 220.431458,748.5 237,748.5 L276,748.5 C292.568542,748.5 306,761.931458 306,778.5 C306,795.068542 292.568542,808.5 276,808.5 L237,808.5 Z M237,690.5 C220.431458,690.5 207,677.068542 207,660.5 C207,643.931458 220.431458,630.5 237,630.5 L276,630.5 C292.568542,630.5 306,643.931458 306,660.5 C306,677.068542 292.568542,690.5 276,690.5 L237,690.5 Z" />
</svg>