<?xml version="1.0" standalone="no"?>
<svg xmlns="http://www.w3.org/2000/svg" class="icon" viewBox="0 0 1024 1024">
    <path d="M664.684665,250.285714 L776.714286,362.315335 L836.601049,302.428571 L724.571429,190.398951 L664.684665,250.285714 Z M802.484834,425.342688 C801.51025,426.693274 800.41513,427.98382 799.199475,429.199475 C797.98382,430.41513 796.693274,431.51025 795.342688,432.484834 L381.770904,846.056618 C377.747383,850.080139 372.70601,852.934516 367.185786,854.314572 L158.614357,906.457429 C135.62142,912.205663 114.794337,891.37858 120.542571,868.385643 L172.685428,659.814214 C174.065484,654.29399 176.919861,649.252617 180.943382,645.229096 L702.371953,123.800525 C714.632385,111.540093 734.510472,111.540093 746.770904,123.800525 L903.199475,280.229096 C915.459907,292.489528 915.459907,312.367615 903.199475,324.628047 L802.484834,425.342688 Z M732.315335,406.714286 L620.285714,294.684665 L231.491231,683.479148 L194.148024,832.851976 L343.520852,795.508769 L732.315335,406.714286 Z" />
</svg>