<?xml version="1.0" standalone="no"?>
<svg xmlns="http://www.w3.org/2000/svg" class="icon" viewBox="0 0 1024 1024">
  <g transform="translate(64.000000, 64.000000)">
    <path d="M128,96 C110.326888,96 96,110.326888 96,128 L96,768 C96,785.673112 110.326888,800 128,800 L768,800 C785.673112,800 800,785.673112 800,768 L800,128 C800,110.326888 785.673112,96 768,96 L128,96 Z M128,32 L768,32 C821.019336,32 864,74.980664 864,128 L864,768 C864,821.019336 821.019336,864 768,864 L128,864 C74.980664,864 32,821.019336 32,768 L32,128 C32,74.980664 74.980664,32 128,32 Z M396.395164,640 L499.604836,640 L499.604836,499.604836 L640,499.604836 L640,396.395164 L499.604836,396.395164 L499.604836,256 L396.395164,256 L396.395164,396.395164 L256,396.395164 L256,499.604836 L396.395164,499.604836 L396.395164,640 Z M192,563.604836 L192,332.395164 L332.395164,332.395164 L332.395164,192 L563.604836,192 L563.604836,332.395164 L704,332.395164 L704,563.604836 L563.604836,563.604836 L563.604836,704 L332.395164,704 L332.395164,563.604836 L192,563.604836 Z" />
  </g>
</svg>
