<?xml version="1.0" standalone="no"?>
<svg xmlns="http://www.w3.org/2000/svg" class="icon" viewBox="0 0 1024 1024">
  <path d="M513.894943,619.468067 L394.049875,916.009622 C380.91913,948.5 422.049381,975.426312 446.575213,950.395835 L918.856653,468.396689 C938.69944,448.145616 924.35211,414.000854 896,414.000854 L514.567931,414.000854 L626.255307,106.93822 C638.105288,74.359011 596.924864,48.8271659 573.013169,73.9281181 L104.830364,565.396185 C85.4235499,585.768205 99.8638376,619.468067 128,619.468067 L513.894943,619.468067 Z M513.802784,228.871094 L438.805082,435.062634 C431.213969,455.932917 446.669619,478.000854 468.877583,478.000854 L819.8442,478.000854 L513.913055,790.226866 L591.010696,599.458446 C599.511738,578.423685 584.029649,555.468067 561.342012,555.468067 L202.679647,555.468067 L513.802784,228.871094 Z" />
</svg>
