<?xml version="1.0" standalone="no"?>
<svg xmlns="http://www.w3.org/2000/svg" class="icon" viewBox="0 0 1024 1024">
  <path d="M633.752927,745.493066 C579.524908,780.012489 515.212503,800 446.25,800 C252.60516,800 95.625,642.404232 95.625,448 C95.625,253.595768 252.60516,96 446.25,96 C639.89484,96 796.875,253.595768 796.875,448 C796.875,549.970382 753.685176,641.813682 684.668598,706.098739 L851.289029,873.372583 C863.73699,885.86936 863.73699,906.13064 851.289029,918.627417 C838.841067,931.124194 818.658933,931.124194 806.210971,918.627417 L633.752927,745.493066 Z M619.268549,677.744559 C688.43896,625.161547 733.125,541.81973 733.125,448 C733.125,288.941992 604.686688,160 446.25,160 C287.813312,160 159.375,288.941992 159.375,448 C159.375,607.058008 287.813312,736 446.25,736 C510.448621,736 569.721887,714.829346 617.520703,679.062814 C618.091535,678.600721 618.674549,678.161303 619.268549,677.744559 Z" />
</svg>
