<?xml version="1.0" standalone="no"?>
<svg xmlns="http://www.w3.org/2000/svg" class="icon" viewBox="0 0 1024 1024">
    <path d="M833.882353,864 L833.882353,474.352941 C833.882353,456.679829 848.209241,442.352941 865.882353,442.352941 C883.555465,442.352941 897.882353,456.679829 897.882353,474.352941 L897.882353,896 C897.882353,913.673112 883.555465,928 865.882353,928 L128,928 C110.326888,928 96,913.673112 96,896 L96,105.411765 C96,87.7386528 110.326888,73.4117648 128,73.4117648 L602.352941,73.4117648 C620.026053,73.4117648 634.352941,87.7386528 634.352941,105.411765 C634.352941,123.084877 620.026053,137.411765 602.352941,137.411765 L160,137.411765 L160,864 L833.882353,864 Z M315.889935,539.10942 L773.004567,81.994788 C794.427064,60.5722961 829.159784,60.5722961 850.582284,81.9947909 L942.005213,173.41772 C963.427703,194.840215 963.427703,229.572938 942.00521,250.995436 L484.89058,708.110066 C478.868801,714.131845 471.527691,718.668898 463.448626,721.36192 L326.314244,767.07338 C283.430333,781.368028 242.631979,740.569672 256.926615,697.685762 L302.638078,560.551374 C305.331102,552.472304 309.868158,545.131193 315.889935,539.10942 Z M362.671178,582.837844 L323.42569,700.574308 L441.16216,661.328818 L890.284402,212.206576 L811.793424,133.715599 L362.671178,582.837844 Z" />
</svg>