<?xml version="1.0" standalone="no"?>
<svg xmlns="http://www.w3.org/2000/svg" class="icon" viewBox="0 0 1024 1024">
  <path d="M540.133624,72 C610.672426,72 669.412143,125.317788 669.412143,192.244998 L669.412143,377.920068 C669.412143,512.114492 558.978197,621.50834 418.119333,635.824276 L418.117857,742.328408 C418.117857,823.554122 479.801038,888.706429 555.02921,888.706429 C604.067191,888.706429 648.785009,860.872099 673.273193,816.15753 C674.654663,813.635014 676.331778,811.377337 678.237874,809.403985 C672.541987,795.065578 669.412143,779.428036 669.412143,763.059286 C669.412143,693.664729 725.664729,637.412143 795.059286,637.412143 C864.453842,637.412143 920.706429,693.664729 920.706429,763.059286 C920.706429,832.453842 864.453842,888.706429 795.059286,888.706429 C766.222949,888.706429 739.655901,878.993015 718.451487,862.659533 C681.602572,917.550343 621.229572,951.53 555.02921,951.53 C444.312582,951.53 355.294286,857.505223 355.294286,742.328408 L355.292806,635.827657 C214.445724,621.525176 104,512.11921 104,377.920068 L104,192.244998 C104,125.317788 162.739717,72 233.278519,72 C250.626769,72 264.690305,86.0635355 264.690305,103.411786 C264.690305,120.760036 250.626769,134.823571 233.278519,134.823571 C196.151717,134.823571 166.823571,161.444603 166.823571,192.244998 L166.823571,377.920068 C166.823571,485.817507 264.621837,574.588571 386.685742,574.588571 C508.784712,574.588571 606.588571,485.822351 606.588571,377.920068 L606.588571,192.244998 C606.588571,161.444603 577.260426,134.823571 540.133624,134.823571 C522.785374,134.823571 508.721838,120.760036 508.721838,103.411786 C508.721838,86.0635355 522.785374,72 540.133624,72 Z M795.059286,700.235714 C760.36123,700.235714 732.235714,728.36123 732.235714,763.059286 C732.235714,797.757342 760.36123,825.882857 795.059286,825.882857 C829.757342,825.882857 857.882857,797.757342 857.882857,763.059286 C857.882857,728.36123 829.757342,700.235714 795.059286,700.235714 Z"/>
</svg>
