<?xml version="1.0" standalone="no"?>
<svg xmlns="http://www.w3.org/2000/svg" class="icon" viewBox="0 0 1024 1024">
    <path d="M334.870777,430.436227 L671.430571,262.235112 C665.332213,245.8124 662,228.04534 662,209.5 C662,125.82886 729.82886,58 813.5,58 C897.17114,58 965,125.82886 965,209.5 C965,293.17114 897.17114,361 813.5,361 C770.253108,361 731.238512,342.879384 703.634634,313.816572 L356.882032,487.111703 C358.274855,495.366792 359,503.848713 359,512.5 C359,535.809499 353.73584,557.889488 344.331513,577.615976 L679.345071,745.044334 C704.70428,696.857221 755.265033,664 813.5,664 C897.17114,664 965,731.82886 965,815.5 C965,899.17114 897.17114,967 813.5,967 C729.82886,967 662,899.17114 662,815.5 C662,811.71842 662.138551,807.9692 662.410854,804.257141 L307.082628,626.676203 C280.454893,649.919801 245.62175,664 207.5,664 C123.82886,664 56,596.17114 56,512.5 C56,428.82886 123.82886,361 207.5,361 C260.928598,361 307.897474,388.657359 334.870777,430.436227 Z M813.5,300.4 C863.702684,300.4 904.4,259.702684 904.4,209.5 C904.4,159.297316 863.702684,118.6 813.5,118.6 C763.297316,118.6 722.6,159.297316 722.6,209.5 C722.6,259.702684 763.297316,300.4 813.5,300.4 Z M813.5,906.4 C863.702684,906.4 904.4,865.702684 904.4,815.5 C904.4,765.297316 863.702684,724.6 813.5,724.6 C763.297316,724.6 722.6,765.297316 722.6,815.5 C722.6,865.702684 763.297316,906.4 813.5,906.4 Z M207.5,603.4 C257.702684,603.4 298.4,562.702684 298.4,512.5 C298.4,462.297316 257.702684,421.6 207.5,421.6 C157.297316,421.6 116.6,462.297316 116.6,512.5 C116.6,562.702684 157.297316,603.4 207.5,603.4 Z" />
</svg>