<?xml version="1.0" standalone="no"?>
<svg xmlns="http://www.w3.org/2000/svg" class="icon" viewBox="0 0 1024 1024">
    <path d="M512,411 C582.692448,411 640,353.692448 640,283 C640,212.307552 582.692448,155 512,155 C441.307552,155 384,212.307552 384,283 C384,353.692448 441.307552,411 512,411 Z M512,475 C405.961328,475 320,389.038672 320,283 C320,176.961328 405.961328,91 512,91 C618.038672,91 704,176.961328 704,283 C704,389.038672 618.038672,475 512,475 Z M832,539 C867.346224,539 896,510.346224 896,475 C896,439.653776 867.346224,411 832,411 C796.653776,411 768,439.653776 768,475 C768,510.346224 796.653776,539 832,539 Z M832,603 C761.307552,603 704,545.692448 704,475 C704,404.307552 761.307552,347 832,347 C902.692448,347 960,404.307552 960,475 C960,545.692448 902.692448,603 832,603 Z M192,539 C227.346224,539 256,510.346224 256,475 C256,439.653776 227.346224,411 192,411 C156.653776,411 128,439.653776 128,475 C128,510.346224 156.653776,539 192,539 Z M192,603 C121.307552,603 64,545.692448 64,475 C64,404.307552 121.307552,347 192,347 C262.692448,347 320,404.307552 320,475 C320,545.692448 262.692448,603 192,603 Z M512,603 C357.186694,603 228.050461,712.936619 198.401159,859 L825.598841,859 C795.949539,712.936619 666.813306,603 512,603 Z M896,923 L128,923 C128,710.922656 299.922656,539 512,539 C724.077344,539 896,710.922656 896,923 Z" />
</svg>