<?xml version="1.0" standalone="no"?>
<svg xmlns="http://www.w3.org/2000/svg" class="icon" viewBox="0 0 1024 1024">
  <path d="M480,352 L480,256 L544,256 L544,352 L640,352 L640,416 L544,416 L544,512 L480,512 L480,416 L384,416 L384,352 L480,352 Z M832,512 L832,832 L896,832 L896,512 L832,512 Z M832,448 L960,448 L960,896 L768,896 L256,896 L64,896 L64,448 L192,448 L192,128 L832,128 L832,448 Z M768,832 L768,448 L768,192 L256,192 L256,448 L256,832 L384,832 L384,640 L640,640 L640,832 L768,832 Z M192,832 L192,512 L128,512 L128,832 L192,832 Z M448,704 L448,832 L576,832 L576,704 L448,704 Z" />
</svg>
