<?xml version="1.0" standalone="no"?>
<svg xmlns="http://www.w3.org/2000/svg" class="icon" viewBox="0 0 1024 1024">
    <path d="M767.37511,544 C765.622965,588.700284 760.222345,631.708588 751.630969,672 L861.181298,672 C879.317614,632.484375 890.943523,589.35991 894.685639,544 L767.37511,544 Z M703.317352,544 L544,544 L544,672 L685.980736,672 C695.30988,632.593246 701.368179,589.501182 703.317352,544 Z M767.37511,480 L894.685639,480 C890.943523,434.64009 879.317614,391.515625 861.18129,351.999984 L751.630969,352 C760.222345,392.291412 765.622965,435.299716 767.37511,480 Z M703.317352,480 C701.368179,434.498818 695.30988,391.406754 685.980731,351.999979 L544,352 L544,480 L703.317352,480 Z M734.585506,288 L823.932968,288 C785.874329,235.094615 734.688803,192.264936 675.144796,164.279368 C699.131505,198.711566 719.264889,240.667889 734.585473,287.999897 Z M666.832068,288 C637.29458,207.860389 592.924345,151.213701 544,133.707903 L544,288 L666.832068,288 Z M480,133.707903 C431.075655,151.213701 386.70542,207.860389 357.167932,288 L480,288 L480,133.707903 Z M289.414527,287.999897 C304.735111,240.667889 324.868495,198.711566 348.855204,164.279368 C289.311197,192.264936 238.125671,235.094615 200.067032,288 L289.414494,288 Z M272.369031,352 L162.818702,352 C144.682386,391.515625 133.056477,434.64009 129.314361,480 L256.62489,480 C258.377035,435.299716 263.777655,392.291412 272.369031,352 Z M338.019269,351.999979 C328.69012,391.406754 322.631821,434.498818 320.682648,480 L480,480 L480,352 L338.019264,352 Z M256.62489,544 L129.314361,544 C133.056477,589.35991 144.682386,632.484375 162.81871,672.000016 L272.369031,672 C263.777655,631.708588 258.377035,588.700284 256.62489,544 Z M320.682648,544 C322.631821,589.501182 328.69012,632.593246 338.019269,672.000021 L480,672 L480,544 L320.682648,544 Z M289.414494,736 L200.067032,736 C238.125671,788.905385 289.311197,831.735064 348.855204,859.720632 C324.868495,825.288434 304.735111,783.332111 289.414527,736.000103 Z M357.167932,736 C386.70542,816.139611 431.075655,872.786299 480,890.292097 L480,736 L357.167932,736 Z M544,890.292097 C592.924345,872.786299 637.29458,816.139611 666.832068,736 L544,736 L544,890.292097 Z M734.585473,736.000103 C719.264889,783.332111 699.131505,825.288434 675.144796,859.720632 C734.688803,831.735064 785.874329,788.905385 823.932968,736 L734.585506,736 Z M512,960 C264.576432,960 64,759.423568 64,512 C64,264.576432 264.576432,64 512,64 C759.423568,64 960,264.576432 960,512 C960,759.423568 759.423568,960 512,960 Z" />
</svg>