<?xml version="1.0" standalone="no"?>
<svg xmlns="http://www.w3.org/2000/svg" class="icon" viewBox="0 0 1024 1024">
    <path d="M510,465.588082 L814.131051,160.612223 C826.911846,147.795926 847.633609,147.795926 860.414404,160.612223 C873.195199,173.42852 873.195199,194.207844 860.414404,207.024141 L556.283353,512 L860.414404,816.975859 C873.195199,829.792156 873.195199,850.57148 860.414404,863.387777 C847.633609,876.204074 826.911846,876.204074 814.131051,863.387777 L510,558.411918 L205.868949,863.387777 C193.088154,876.204074 172.366391,876.204074 159.585596,863.387777 C146.804801,850.57148 146.804801,829.792156 159.585596,816.975859 L463.716647,512 L159.585596,207.024141 C146.804801,194.207844 146.804801,173.42852 159.585596,160.612223 C172.366391,147.795926 193.088154,147.795926 205.868949,160.612223 L510,465.588082 Z" />
</svg>