<?xml version="1.0" standalone="no"?>
<svg xmlns="http://www.w3.org/2000/svg" class="icon" viewBox="0 0 1024 1024">
  <path d="M160,704 L240,704 C257.673112,704 272,718.326888 272,736 C272,753.673112 257.673112,768 240,768 L128,768 C110.326888,768 96,753.673112 96,736 L96,96 C96,78.326888 110.326888,64 128,64 L576,64 C593.673112,64 608,78.326888 608,96 C608,113.673112 593.673112,128 576,128 L160,128 L160,704 Z M448,224 L896,224 C931.346224,224 960,252.653776 960,288 L960,864 C960,899.346224 931.346224,928 896,928 L448,928 C412.653776,928 384,899.346224 384,864 L384,288 C384,252.653776 412.653776,224 448,224 Z M448,288 L448,864 L896,864 L896,288 L448,288 Z" />
</svg>
