<?xml version="1.0" standalone="no"?>
<svg xmlns="http://www.w3.org/2000/svg" class="icon" viewBox="0 0 1024 1024">
  <path d="M201.68882,194.666667 L512,401.540786 L822.31118,194.666667 L201.68882,194.666667 Z M97.9268306,130.666667 L926.073169,130.666667 C943.39314,129.649602 960,143.151627 960,162.666667 L960,786.666667 C960,804.339779 945.673112,818.666667 928,818.666667 L96,818.666667 C78.326888,818.666667 64,804.339779 64,786.666667 L64,162.666667 C64,143.151627 80.6068596,129.649602 97.9268306,130.666667 Z M128,222.459214 L128,754.666667 L896,754.666667 L896,222.459214 L529.750406,466.625609 C519.001625,473.791464 504.998375,473.791464 494.249594,466.625609 L128,222.459214 Z" />
</svg>
