<?xml version="1.0" standalone="no"?>
<svg xmlns="http://www.w3.org/2000/svg" class="icon" viewBox="0 0 1024 1024">
    <path d="M856,391.749707 L856,917.482759 C856,935.155871 841.673112,949.482759 824,949.482759 L200,949.482759 C182.326888,949.482759 168,935.155871 168,917.482759 L168,391.749707 L107.061376,445.022909 C93.7558016,456.654786 73.5400025,455.297986 61.9081254,441.992411 C50.2762484,428.686836 51.6330486,408.471037 64.9386235,396.83916 L490.938624,24.4253668 C502.999979,13.8811996 521.000021,13.8811996 533.061376,24.4253668 L959.061376,396.83916 C972.366951,408.471037 973.723752,428.686836 962.091875,441.992411 C950.459998,455.297986 930.244198,456.654786 916.938624,445.022909 L856,391.749707 Z M792.007007,335.806343 L512,91.0211984 L231.992993,335.806343 C231.997657,336.031252 232,336.256732 232,336.482759 L232,885.482759 L792,885.482759 L792,336.482759 C792,336.256732 792.002343,336.031252 792.007007,335.806343 Z M441.057617,389.663285 C467.487421,392.405358 492.116829,403.036838 512,419.714475 C531.883171,403.036838 556.512579,392.405358 582.942383,389.663285 C623.382955,385.467606 663.490034,400.214876 691.579736,429.608962 L691.589884,429.619586 C743.10219,483.573512 743.119917,568.484974 691.630143,622.460403 L691.488044,622.608409 L535.012182,784.54634 C522.431754,797.56591 501.564752,797.564876 488.985614,784.544059 L332.540786,622.606128 L332.405503,622.465236 C280.904465,568.500558 280.904465,483.589097 332.420264,429.608962 C360.509966,400.214876 400.617045,385.467606 441.057617,389.663285 Z M645.386223,578.216579 C673.213917,548.974452 673.184463,503.026857 645.304844,473.82021 C630.886779,458.735901 610.302402,451.168227 589.546886,453.321596 C568.788933,455.475218 550.194605,467.109932 539.18075,484.836343 C526.66153,504.985587 497.33847,504.985587 484.81925,484.836343 C473.805395,467.109932 455.211067,455.475218 434.453114,453.321596 C413.695162,451.167974 393.10839,458.737677 378.704842,473.810064 C350.825218,503.023357 350.8047,548.977085 378.643288,578.215018 L512.002282,716.256524 L645.386223,578.216579 Z" />
</svg>