<?xml version="1.0" standalone="no"?>
<svg xmlns="http://www.w3.org/2000/svg" class="icon" viewBox="0 0 1024 1024">
  <path d="M510,640 C439.583694,640 382.5,582.692448 382.5,512 C382.5,441.307552 439.583694,384 510,384 C580.416306,384 637.5,441.307552 637.5,512 C637.5,582.692448 580.416306,640 510,640 Z M541.875,862.565024 L541.875,968.421875 C541.875,986.094987 527.604076,1000.42188 510,1000.42188 C492.395924,1000.42188 478.125,986.094987 478.125,968.421875 L478.125,862.565024 C309.874725,847.343721 175.896377,712.802049 160.793173,543.875 L63.5,543.875 C45.826888,543.875 31.5,529.604076 31.5,512 C31.5,494.395924 45.826888,480.125 63.5,480.125 L160.793173,480.125 C176.015873,309.861415 312.002217,174.529467 482.124939,161.096137 L482.124939,64 C482.124939,46.326888 496.395863,32 513.999939,32 C531.604015,32 545.874939,46.326888 545.874939,64 L545.874939,161.819944 C712.244691,178.794294 844.223504,312.53881 859.206827,480.125 L956.5,480.125 C974.173112,480.125 988.5,494.395924 988.5,512 C988.5,529.604076 974.173112,543.875 956.5,543.875 L859.206827,543.875 C844.103623,712.802049 710.125275,847.343721 541.875,862.565024 Z M796.838335,516.65186 C796.615425,515.133367 796.5,513.58011 796.5,512 C796.5,510.41989 796.615425,508.866633 796.838335,507.34814 C794.363218,350.435533 666.889232,224 510,224 C353.110768,224 225.636782,350.435533 223.161665,507.34814 C223.384575,508.866633 223.5,510.41989 223.5,512 C223.5,513.58011 223.384575,515.133367 223.161665,516.65186 C225.636782,673.564467 353.110768,800 510,800 C666.889232,800 794.363218,673.564467 796.838335,516.65186 Z" />
</svg>
