<?xml version="1.0" standalone="no"?>
<svg xmlns="http://www.w3.org/2000/svg" class="icon" viewBox="0 0 1024 1024">
  <path d="M496.623229,226.330513 L497.501816,227.268136 C553.019187,286.515978 552.214829,373.782533 495.022252,429.417541 C526.232873,464.400646 564.158976,499.503833 600.45385,526.973488 C660.442477,472.146296 757.669441,472.516183 817.203294,528.108667 L902.459317,607.928079 C971.006699,664.782664 972.829895,766.129648 905.897473,821.429378 L848.507216,875.015906 C788.19374,932.326547 702.274809,941.327349 602.602083,906.610162 C511.250483,874.79132 408.513216,806.471575 304.215212,709.078585 C200.028748,611.789751 126.65345,515.73871 91.9424368,429.765396 C53.6712257,334.974074 62.6481202,252.003265 123.604398,193.990691 L123.714317,193.88608 L182.556848,138.9392 C242.197087,83.2474227 339.814912,82.9980203 399.785402,138.329418 L496.623229,226.330513 Z M356.547538,185.515827 L356.447451,185.423304 C321.09665,152.744224 261.404275,152.876698 226.236764,185.715956 L167.622326,240.449845 C127.990923,278.253452 122.056354,333.40308 151.288066,405.805089 C182.011838,481.902681 249.962845,570.85312 347.895128,662.301829 C446.197687,754.0963 541.767069,817.649439 623.65359,846.171481 C702.717101,873.710236 763.790996,867.291668 804.500138,828.546623 L804.610784,828.441315 L863.778694,773.194954 L864.633638,772.500313 C900.837602,743.084645 899.861904,688.447285 861.084034,656.763015 L860.248476,656.080305 L859.460804,655.342861 L773.492987,574.857008 C738.188119,541.889478 678.244512,541.886007 642.951621,574.842344 L606.134125,609.222349 L584.961024,594.703311 C529.98197,557.002504 469.174929,500.486047 425.986573,446.998774 L407.27941,423.830606 L449.054991,384.820764 C482.022436,354.035917 483.136889,306.368731 451.613027,271.906313 L356.547538,185.515827 Z" />
</svg>
