<?xml version="1.0" standalone="no"?>
<svg xmlns="http://www.w3.org/2000/svg" class="icon" viewBox="0 0 1024 1024">
  <path d="M543.261521,533.283803 L543.261521,576 L605.625,576 C623.229076,576 637.5,590.326888 637.5,608 L637.5,800 C637.5,817.673112 623.229076,832 605.625,832 L414.375,832 C396.770924,832 382.5,817.673112 382.5,800 L382.5,608 C382.5,590.326888 396.770924,576 414.375,576 L479.511521,576 L479.511521,533.283803 L227.152992,533.283803 L227.152992,576 L286.875,576 C304.479076,576 318.75,590.326888 318.75,608 L318.75,800 C318.75,817.673112 304.479076,832 286.875,832 L95.625,832 C78.0209236,832 63.75,817.673112 63.75,800 L63.75,608 C63.75,590.326888 78.0209236,576 95.625,576 L163.402992,576 L163.402992,501.283803 C163.402992,483.610691 177.673916,469.283803 195.277992,469.283803 L479.511521,469.283803 L479.511521,448 L350.625,448 C333.020924,448 318.75,433.673112 318.75,416 L318.75,160 C318.75,142.326888 333.020924,128 350.625,128 L669.375,128 C686.979076,128 701.25,142.326888 701.25,160 L701.25,416 C701.25,433.673112 686.979076,448 669.375,448 L543.261521,448 L543.261521,469.283803 L826.320123,469.283803 C843.9242,469.283803 858.195123,483.610691 858.195123,501.283803 L858.195123,576 L924.375,576 C941.979076,576 956.25,590.326888 956.25,608 L956.25,800 C956.25,817.673112 941.979076,832 924.375,832 L733.125,832 C715.520924,832 701.25,817.673112 701.25,800 L701.25,608 C701.25,590.326888 715.520924,576 733.125,576 L794.445123,576 L794.445123,533.283803 L543.261521,533.283803 Z M382.5,192 L382.5,384 L637.5,384 L637.5,192 L382.5,192 Z M127.5,640 L127.5,768 L255,768 L255,640 L127.5,640 Z M446.25,640 L446.25,768 L573.75,768 L573.75,640 L446.25,640 Z M765,640 L765,768 L892.5,768 L892.5,640 L765,640 Z" />
</svg>
