<?xml version="1.0" encoding="utf-8"?>
<svg version="1.1" class="icon" xmlns="http://www.w3.org/2000/svg" xmlns:xlink="http://www.w3.org/1999/xlink" x="0px" y="0px"
	 viewBox="206 -116 1024 1024" style="enable-background:new 206 -116 1024 1024;" xml:space="preserve">
<path d="M624.3,234.8l160.3,123.9l109.3-36.4c14.6-7.3,36.4,0,43.7,21.9s0,36.4-21.9,43.7l0,0l-123.8,43.6c-7.3,0-21.9,0-29.1-7.3
	l-153-116.6L580.7,446l182.1,138.5c7.3,7.3,14.6,14.6,14.6,29.1v211.3c0,14.6-14.6,36.4-29.1,36.4s-29.1-14.6-29.1-36.4V628.2
	L573.3,518.9l-80.2,349.7c-7.3,14.6-21.9,29.1-36.4,21.9c-14.6-7.3-29.1-21.9-21.9-36.4l0,0l138.4-582.9l-153,65.6l-36.4,109.3
	c-7.3,14.6-21.9,29.1-43.7,21.9c-21.9-7.3-29.1-21.9-21.9-43.7l0,0l43.7-123.9c0-7.3,7.3-14.6,14.6-21.9l211.3-94.7l0,0l7.3-21.9
	C551.4,140,514.9,89,514.9,38c0-72.9,58.3-138.4,138.4-138.4c72.9,0,138.4,58.3,138.4,138.4c0,72.9-58.3,138.4-131.2,138.4
	C638.9,176.5,624.3,234.8,624.3,234.8z M644.4,131.7c47.3,9.4,94.7-28.2,104.2-84.6c9.5-47-28.4-94-85.2-103.4
	c-47.3-9.4-94.7,28.2-104.2,84.6c-9.5,47,18.9,84.6,66.3,103.4C634.9,131.7,644.4,131.7,644.4,131.7z M1083.4,606.4H850.2
	c-14.6,0-29.1-14.6-29.1-29.1s14.6-36.4,29.1-36.4h233.2l-65.6-65.7c-14.6-14.6-14.6-36.4,0-43.7c14.6-14.6,36.4-14.6,43.7,0
	l116.6,116.6c14.6,7.3,21.9,29.1,14.6,43.7l-7.3,7.3l0,0L1068.8,723c-14.6,14.6-36.4,14.6-43.7,0c-14.6-14.6-14.6-36.4,0-43.7
	C1017.8,672,1083.4,606.4,1083.4,606.4z"/>
</svg>
