<svg xmlns="http://www.w3.org/2000/svg" viewBox="0 0 1024 1024">
  <path d="M389.073527,349.699461 L555.001461,474.156477 L666.983014,436.825974 C684.587353,430.957339 703.615958,440.471007 709.484592,458.075346 C715.353227,475.679685 705.839559,494.70829 688.23522,500.576925 L559.55101,543.475475 C549.090453,546.962638 537.584672,545.095412 528.763759,538.47914 L372.292725,421.11543 L339.779251,559.486728 L526.778347,699.836414 C535.233596,706.182389 540.209117,716.137704 540.209117,726.709489 L540.209117,941.6 C540.209117,960.156768 525.165885,975.2 506.609117,975.2 C488.052349,975.2 473.009117,960.156768 473.009117,941.6 L473.009117,743.502278 L322.996239,630.912106 L238.318276,991.285759 C234.073549,1009.35053 215.988128,1020.55389 197.923358,1016.30916 C179.858588,1012.06443 168.65523,993.979011 172.899958,975.914241 L313.186207,378.882064 L153.668944,449.748587 L115.482772,564.231562 C109.611122,581.834896 90.5808877,591.345305 72.9775545,585.473655 C55.3742209,579.602005 45.863812,560.571771 51.7354617,542.968438 L94.6107367,414.427429 C97.5979807,405.471607 104.215173,398.185728 112.842968,394.352777 L329.967693,297.893786 C330.788371,297.529195 331.615832,297.20014 332.448352,296.905958 L337.781043,274.211017 C290.572721,251.392238 258.009117,203.048938 258.009117,147.1 C258.009117,69.1726218 321.181739,6 399.109117,6 C477.036495,6 540.209117,69.1726218 540.209117,147.1 C540.209117,223.54488 479.417236,285.791056 403.540258,288.131744 L389.073527,349.699461 Z M390.288772,220.479072 C393.180946,220.823051 396.124367,221 399.109117,221 C439.92296,221 473.009117,187.913843 473.009117,147.1 C473.009117,106.286157 439.92296,73.2 399.109117,73.2 C358.295274,73.2 325.209117,106.286157 325.209117,147.1 C325.209117,180.64889 347.564786,208.976335 378.19183,217.998039 C380.538794,218.041035 382.917014,218.332108 385.294876,218.890841 C387.024954,219.297362 388.692099,219.83083 390.288768,220.479071 L390.288772,220.479072 Z M859.719617,729.7 L617.280992,729.7 C598.724224,729.7 583.680992,714.656768 583.680992,696.1 C583.680992,677.543232 598.724224,662.499999 617.280992,662.499999 L857.727714,662.499999 L792.802186,597.310547 C779.707212,584.162342 779.750365,562.888042 792.89857,549.793069 C806.046775,536.698095 827.321075,536.741248 840.416048,549.889453 L956.591654,666.537318 C967.083803,672.221686 974.209117,683.32874 974.209117,696.1 C974.209117,705.63208 970.239836,714.237084 963.863968,720.352319 C963.716409,720.506128 963.567102,720.658879 963.416048,720.810547 L840.416048,844.310547 C827.321075,857.458752 806.046775,857.501905 792.89857,844.406931 C779.750365,831.311958 779.707212,810.037658 792.802186,796.889453 L859.719617,729.7 Z"/>
</svg>
