<?xml version="1.0" encoding="utf-8"?>
<svg version="1.1" id="Layer_1" focusable="false" xmlns="http://www.w3.org/2000/svg" xmlns:xlink="http://www.w3.org/1999/xlink"
	 x="0px" y="0px" viewBox="-242.8 447 14 14" style="enable-background:new -242.8 447 14 14;" xml:space="preserve">
<path d="M-237.5,451.8l2.2,1.7l1.5-0.5c0.2-0.1,0.5,0,0.6,0.3s0,0.5-0.3,0.6l0,0l-1.7,0.6c-0.1,0-0.3,0-0.4-0.1l-2.1-1.6l-0.4,1.9
	l2.5,1.9c0.1,0.1,0.2,0.2,0.2,0.4v2.9c0,0.2-0.2,0.5-0.4,0.5c-0.2,0-0.4-0.2-0.4-0.5v-2.7l-2-1.5l-1.1,4.8c-0.1,0.2-0.3,0.4-0.5,0.3
	s-0.4-0.3-0.3-0.5l0,0l1.9-8l-2.1,0.9l-0.5,1.5c-0.1,0.2-0.3,0.4-0.6,0.3s-0.4-0.3-0.3-0.6c0,0,0,0,0,0l0.6-1.7
	c0-0.1,0.1-0.2,0.2-0.3l2.9-1.3c0,0,0,0,0,0l0.1-0.3c-0.6-0.3-1.1-1-1.1-1.7c0-1,0.8-1.9,1.9-1.9c1,0,1.9,0.8,1.9,1.9
	c0,1-0.8,1.9-1.8,1.9C-237.3,451-237.5,451.8-237.5,451.8z M-237.5,450.1c0.5,0.1,1-0.3,1.1-0.9c0.1-0.5-0.3-1-0.9-1.1
	c-0.5-0.1-1,0.3-1.1,0.9c-0.1,0.5,0.2,0.9,0.7,1.1C-237.6,450.1-237.5,450.1-237.5,450.1z M-231.2,456.9h-3.2
	c-0.2,0-0.4-0.2-0.4-0.4s0.2-0.5,0.4-0.5h3.2l-0.9-0.9c-0.2-0.2-0.2-0.5,0-0.6c0.2-0.2,0.5-0.2,0.6,0l1.6,1.6
	c0.2,0.1,0.3,0.4,0.2,0.6c0,0-0.1,0.1-0.1,0.1l0,0l-1.6,1.7c-0.2,0.2-0.5,0.2-0.6,0c-0.2-0.2-0.2-0.5,0-0.6
	C-232.1,457.8-231.2,456.9-231.2,456.9z"/>
</svg>
